<svg width="32" height="32" viewBox="0 0 480 480" fill="none" xmlns="http://www.w3.org/2000/svg">
<path d="M472 76H384V12C384 7.582 380.418 4 376 4H104C99.582 4 96 7.582 96 12V124H8C3.582 124 0 127.582 0 132V460C0 464.418 3.582 468 8 468C12.418 468 16 464.418 16 460V140H96V468C96 472.418 99.582 476 104 476H376C380.418 476 384 472.418 384 468V92H464V460C464 464.418 467.582 468 472 468C476.418 468 480 464.418 480 460V84C480 79.582 476.418 76 472 76ZM232 460H200V388H232V460ZM280 460H248V388H280V460ZM368 460H296V380C296 375.582 292.418 372 288 372H192C187.582 372 184 375.582 184 380V460H112V20H368V460Z" fill="white"/>
<path d="M184 36H136C131.582 36 128 39.582 128 44V92C128 96.418 131.582 100 136 100H184C188.418 100 192 96.418 192 92V44C192 39.582 188.418 36 184 36ZM176 84H144V52H176V84Z" fill="white"/>
<path d="M264 36H216C211.582 36 208 39.582 208 44V92C208 96.418 211.582 100 216 100H264C268.418 100 272 96.418 272 92V44C272 39.582 268.418 36 264 36ZM256 84H224V52H256V84Z" fill="white"/>
<path d="M344 36H296C291.582 36 288 39.582 288 44V92C288 96.418 291.582 100 296 100H344C348.418 100 352 96.418 352 92V44C352 39.582 348.418 36 344 36ZM336 84H304V52H336V84Z" fill="white"/>
<path d="M184 116H136C131.582 116 128 119.582 128 124V172C128 176.418 131.582 180 136 180H184C188.418 180 192 176.418 192 172V124C192 119.582 188.418 116 184 116ZM176 164H144V132H176V164Z" fill="white"/>
<path d="M264 116H216C211.582 116 208 119.582 208 124V172C208 176.418 211.582 180 216 180H264C268.418 180 272 176.418 272 172V124C272 119.582 268.418 116 264 116ZM256 164H224V132H256V164Z" fill="white"/>
<path d="M344 116H296C291.582 116 288 119.582 288 124V172C288 176.418 291.582 180 296 180H344C348.418 180 352 176.418 352 172V124C352 119.582 348.418 116 344 116ZM336 164H304V132H336V164Z" fill="white"/>
<path d="M184 196H136C131.582 196 128 199.582 128 204V252C128 256.418 131.582 260 136 260H184C188.418 260 192 256.418 192 252V204C192 199.582 188.418 196 184 196ZM176 244H144V212H176V244Z" fill="white"/>
<path d="M264 196H216C211.582 196 208 199.582 208 204V252C208 256.418 211.582 260 216 260H264C268.418 260 272 256.418 272 252V204C272 199.582 268.418 196 264 196ZM256 244H224V212H256V244Z" fill="white"/>
<path d="M344 196H296C291.582 196 288 199.582 288 204V252C288 256.418 291.582 260 296 260H344C348.418 260 352 256.418 352 252V204C352 199.582 348.418 196 344 196ZM336 244H304V212H336V244Z" fill="white"/>
<path d="M184 276H136C131.582 276 128 279.582 128 284V332C128 336.418 131.582 340 136 340H184C188.418 340 192 336.418 192 332V284C192 279.582 188.418 276 184 276ZM176 324H144V292H176V324Z" fill="white"/>
<path d="M264 276H216C211.582 276 208 279.582 208 284V332C208 336.418 211.582 340 216 340H264C268.418 340 272 336.418 272 332V284C272 279.582 268.418 276 264 276ZM256 324H224V292H256V324Z" fill="white"/>
<path d="M344 276H296C291.582 276 288 279.582 288 284V332C288 336.418 291.582 340 296 340H344C348.418 340 352 336.418 352 332V284C352 279.582 348.418 276 344 276ZM336 324H304V292H336V324Z" fill="white"/>
<path d="M48 156H40C35.582 156 32 159.582 32 164V172C32 176.418 35.582 180 40 180H48C52.418 180 56 176.418 56 172V164C56 159.582 52.418 156 48 156Z" fill="white"/>
<path d="M80 156H72C67.582 156 64 159.582 64 164V172C64 176.418 67.582 180 72 180H80C84.418 180 88 176.418 88 172V164C88 159.582 84.418 156 80 156Z" fill="white"/>
<path d="M48 188H40C35.582 188 32 191.582 32 196V204C32 208.418 35.582 212 40 212H48C52.418 212 56 208.418 56 204V196C56 191.582 52.418 188 48 188Z" fill="white"/>
<path d="M80 188H72C67.582 188 64 191.582 64 196V204C64 208.418 67.582 212 72 212H80C84.418 212 88 208.418 88 204V196C88 191.582 84.418 188 80 188Z" fill="white"/>
<path d="M48 220H40C35.582 220 32 223.582 32 228V236C32 240.418 35.582 244 40 244H48C52.418 244 56 240.418 56 236V228C56 223.582 52.418 220 48 220Z" fill="white"/>
<path d="M80 220H72C67.582 220 64 223.582 64 228V236C64 240.418 67.582 244 72 244H80C84.418 244 88 240.418 88 236V228C88 223.582 84.418 220 80 220Z" fill="white"/>
<path d="M48 252H40C35.582 252 32 255.582 32 260V268C32 272.418 35.582 276 40 276H48C52.418 276 56 272.418 56 268V260C56 255.582 52.418 252 48 252Z" fill="white"/>
<path d="M80 252H72C67.582 252 64 255.582 64 260V268C64 272.418 67.582 276 72 276H80C84.418 276 88 272.418 88 268V260C88 255.582 84.418 252 80 252Z" fill="white"/>
<path d="M48 284H40C35.582 284 32 287.582 32 292V300C32 304.418 35.582 308 40 308H48C52.418 308 56 304.418 56 300V292C56 287.582 52.418 284 48 284Z" fill="white"/>
<path d="M80 284H72C67.582 284 64 287.582 64 292V300C64 304.418 67.582 308 72 308H80C84.418 308 88 304.418 88 300V292C88 287.582 84.418 284 80 284Z" fill="white"/>
<path d="M48 316H40C35.582 316 32 319.582 32 324V332C32 336.418 35.582 340 40 340H48C52.418 340 56 336.418 56 332V324C56 319.582 52.418 316 48 316Z" fill="white"/>
<path d="M80 316H72C67.582 316 64 319.582 64 324V332C64 336.418 67.582 340 72 340H80C84.418 340 88 336.418 88 332V324C88 319.582 84.418 316 80 316Z" fill="white"/>
<path d="M48 348H40C35.582 348 32 351.582 32 356V364C32 368.418 35.582 372 40 372H48C52.418 372 56 368.418 56 364V356C56 351.582 52.418 348 48 348Z" fill="white"/>
<path d="M80 348H72C67.582 348 64 351.582 64 356V364C64 368.418 67.582 372 72 372H80C84.418 372 88 368.418 88 364V356C88 351.582 84.418 348 80 348Z" fill="white"/>
<path d="M48 380H40C35.582 380 32 383.582 32 388V396C32 400.418 35.582 404 40 404H48C52.418 404 56 400.418 56 396V388C56 383.582 52.418 380 48 380Z" fill="white"/>
<path d="M80 380H72C67.582 380 64 383.582 64 388V396C64 400.418 67.582 404 72 404H80C84.418 404 88 400.418 88 396V388C88 383.582 84.418 380 80 380Z" fill="white"/>
<path d="M48 412H40C35.582 412 32 415.582 32 420V428C32 432.418 35.582 436 40 436H48C52.418 436 56 432.418 56 428V420C56 415.582 52.418 412 48 412Z" fill="white"/>
<path d="M80 412H72C67.582 412 64 415.582 64 420V428C64 432.418 67.582 436 72 436H80C84.418 436 88 432.418 88 428V420C88 415.582 84.418 412 80 412Z" fill="white"/>
<path d="M440 108H408C403.582 108 400 111.582 400 116V148C400 152.418 403.582 156 408 156H440C444.418 156 448 152.418 448 148V116C448 111.582 444.418 108 440 108ZM432 140H416V124H432V140Z" fill="white"/>
<path d="M440 172H408C403.582 172 400 175.582 400 180V212C400 216.418 403.582 220 408 220H440C444.418 220 448 216.418 448 212V180C448 175.582 444.418 172 440 172ZM432 204H416V188H432V204Z" fill="white"/>
<path d="M440 236H408C403.582 236 400 239.582 400 244V276C400 280.418 403.582 284 408 284H440C444.418 284 448 280.418 448 276V244C448 239.582 444.418 236 440 236ZM432 268H416V252H432V268Z" fill="white"/>
<path d="M440 300H408C403.582 300 400 303.582 400 308V340C400 344.418 403.582 348 408 348H440C444.418 348 448 344.418 448 340V308C448 303.582 444.418 300 440 300ZM432 332H416V316H432V332Z" fill="white"/>
<path d="M440 364H408C403.582 364 400 367.582 400 372V404C400 408.418 403.582 412 408 412H440C444.418 412 448 408.418 448 404V372C448 367.582 444.418 364 440 364ZM432 396H416V380H432V396Z" fill="white"/>
</svg>
